<svg width="16" height="16" viewBox="0 0 16 16" fill="none" xmlns="http://www.w3.org/2000/svg">
<path d="M15.9055 14.6406C14.6703 12.5062 12.7312 11.0086 10.4781 10.3734C11.5735 9.8166 12.4495 8.90706 12.9648 7.79147C13.48 6.67588 13.6045 5.41927 13.3182 4.22426C13.032 3.02924 12.3515 1.96548 11.3867 1.20449C10.4218 0.443495 9.22882 0.0296326 7.99999 0.0296326C6.77116 0.0296326 5.57814 0.443495 4.6133 1.20449C3.64846 1.96548 2.96804 3.02924 2.68174 4.22426C2.39544 5.41927 2.51996 6.67588 3.03522 7.79147C3.55048 8.90706 4.42644 9.8166 5.52187 10.3734C3.26874 11.0078 1.32968 12.5055 0.0945267 14.6406C0.0606109 14.694 0.0378377 14.7536 0.0275771 14.816C0.0173166 14.8784 0.019781 14.9422 0.0348216 15.0036C0.0498623 15.065 0.0771685 15.1227 0.115098 15.1733C0.153027 15.2239 0.200795 15.2663 0.255529 15.2979C0.310263 15.3296 0.370831 15.3498 0.433589 15.3574C0.496347 15.365 0.559999 15.3599 0.620716 15.3423C0.681432 15.3247 0.737958 15.295 0.786893 15.2549C0.835828 15.2149 0.87616 15.1654 0.905464 15.1094C2.40624 12.5164 5.05781 10.9687 7.99999 10.9687C10.9422 10.9687 13.5937 12.5164 15.0945 15.1094C15.1238 15.1654 15.1642 15.2149 15.2131 15.2549C15.262 15.295 15.3186 15.3247 15.3793 15.3423C15.44 15.3599 15.5036 15.365 15.5664 15.3574C15.6292 15.3498 15.6897 15.3296 15.7445 15.2979C15.7992 15.2663 15.847 15.2239 15.8849 15.1733C15.9228 15.1227 15.9501 15.065 15.9652 15.0036C15.9802 14.9422 15.9827 14.8784 15.9724 14.816C15.9622 14.7536 15.9394 14.694 15.9055 14.6406ZM3.46875 5.5C3.46875 4.6038 3.7345 3.72773 4.2324 2.98257C4.7303 2.23741 5.43798 1.65663 6.26596 1.31367C7.09394 0.970707 8.00502 0.880974 8.884 1.05581C9.76297 1.23065 10.5704 1.66221 11.2041 2.29592C11.8378 2.92963 12.2693 3.73702 12.4442 4.61599C12.619 5.49497 12.5293 6.40605 12.1863 7.23403C11.8434 8.06201 11.2626 8.76969 10.5174 9.26759C9.77226 9.76549 8.89619 10.0312 7.99999 10.0312C6.79868 10.0298 5.64698 9.55194 4.79752 8.70247C3.94806 7.85301 3.47019 6.70131 3.46875 5.5Z" fill="#2D3B36"/>
</svg>
